# 3ds Max Wavefront OBJ Exporter v0.97b - (c)2007 guruware
# File Created: 14.08.2012 15:15:08

mtllib 16643_48x78_Closet_Mirror-Gold_V1_NEW.mtl

#
# object ClosetMirror84x80l02
#

v  -37.4731 5.8587 -44.0000
v  4.5269 5.8587 -44.0000
v  4.5269 4.8587 -44.0000
v  -37.4731 4.8587 -44.0000
v  4.5269 4.8587 36.0000
v  4.5269 5.8587 36.0000
v  -37.4731 5.8587 36.0000
v  -37.4731 4.8587 36.0000
v  4.2769 4.8587 -43.7500
v  4.2769 4.8587 35.7500
v  -37.2231 4.8587 35.7500
v  -37.2231 4.8587 -43.7500
# 12 vertices

vn 0.0000 0.0000 -1.0000
vn 0.0000 0.0000 1.0000
vn 0.0000 -1.0000 0.0000
vn 1.0000 0.0000 0.0000
vn 0.0000 1.0000 0.0000
vn -1.0000 0.0000 0.0000
# 6 vertex normals

vt 1.0000 1.0000 0.0000
vt -41.0000 1.0000 0.0000
vt -41.0000 0.0000 0.0000
vt 1.0000 0.0000 0.0000
vt 42.0000 0.0000 0.0000
vt 42.0000 1.0000 0.0000
vt 0.0000 1.0000 0.0000
vt 0.0000 0.0000 0.0000
vt 42.0000 80.0000 0.0000
vt 0.0000 80.0000 0.0000
vt 1.0000 80.0000 0.0000
# 11 texture coords

g ClosetMirror84x80l02
usemtl _16643_48x78_Closet_Mirror_Gold_V1White_Mat__wood_
s 2
f 1/1/1 2/2/1 3/3/1 4/4/1 
s 4
f 5/5/2 6/6/2 7/7/2 8/8/2 
usemtl _16643_48x78_Closet_Mirror_Gold_V1Mirrror_mat
s 8
f 9/5/3 10/9/3 11/10/3 12/8/3 
usemtl _16643_48x78_Closet_Mirror_Gold_V1White_Mat__wood_
s 16
f 2/4/4 6/11/4 5/10/4 3/8/4 
usemtl _16643_48x78_Closet_Mirror_Gold_V1Mirrror_mat
s 32
f 1/5/5 7/9/5 6/10/5 2/8/5 
usemtl _16643_48x78_Closet_Mirror_Gold_V1White_Mat__wood_
s 64
f 4/4/6 8/11/6 7/10/6 1/8/6 
s off
f 3/3/3 9/5/3 12/8/3 4/4/3 
f 5/10/3 10/9/3 9/5/3 3/8/3 
f 8/8/3 11/10/3 10/9/3 5/5/3 
f 4/4/3 12/8/3 11/10/3 8/11/3 
# 10 polygons

#
# object ClosetMirror84x80r02
#

v  4.5269 4.8587 -44.0000
v  46.5269 4.8587 -44.0000
v  46.5269 3.8587 -44.0000
v  4.5269 3.8587 -44.0000
v  46.5269 3.8587 36.0000
v  46.5269 4.8587 36.0000
v  4.5269 4.8587 36.0000
v  4.5269 3.8587 36.0000
v  46.2769 3.8587 -43.7500
v  46.2769 3.8587 35.7500
v  4.7769 3.8587 35.7500
v  4.7769 3.8587 -43.7500
# 12 vertices

vn 0.0000 0.0000 -1.0000
vn 0.0000 0.0000 1.0000
vn 0.0000 -1.0000 0.0000
vn 1.0000 0.0000 0.0000
vn 0.0000 1.0000 0.0000
vn -1.0000 0.0000 0.0000
# 6 vertex normals

vt 1.0000 1.0000 0.0000
vt -41.0000 1.0000 0.0000
vt -41.0000 0.0000 0.0000
vt 1.0000 0.0000 0.0000
vt 42.0000 0.0000 0.0000
vt 42.0000 1.0000 0.0000
vt 0.0000 1.0000 0.0000
vt 0.0000 0.0000 0.0000
vt 42.0000 80.0000 0.0000
vt 0.0000 80.0000 0.0000
vt 1.0000 80.0000 0.0000
# 11 texture coords

g ClosetMirror84x80r02
usemtl _16643_48x78_Closet_Mirror_Gold_V1Mirrror_mat
s 2
f 13/12/7 14/13/7 15/14/7 16/15/7 
s 4
f 17/16/8 18/17/8 19/18/8 20/19/8 
s 8
f 21/16/9 22/20/9 23/21/9 24/19/9 
s 16
f 14/15/10 18/22/10 17/21/10 15/19/10 
s 32
f 13/16/11 19/20/11 18/21/11 14/19/11 
s 64
f 16/15/12 20/22/12 19/21/12 13/19/12 
s off
f 15/14/9 21/16/9 24/19/9 16/15/9 
f 17/21/9 22/20/9 21/16/9 15/19/9 
f 20/19/9 23/21/9 22/20/9 17/16/9 
f 16/15/9 24/19/9 23/21/9 20/22/9 
# 10 polygons

#
# object Box45
#

v  -37.4731 6.7695 36.0000
v  46.5269 6.7695 36.0000
v  46.5269 2.7695 36.0000
v  -37.4731 2.7695 36.0000
v  46.5269 2.7695 44.0000
v  46.5269 6.7695 44.0000
v  -37.4731 6.7695 44.0000
v  -37.4731 2.7695 44.0000
# 8 vertices

vn 0.0000 0.0000 -1.0000
vn 0.0000 0.0000 1.0000
vn 0.0000 -1.0000 0.0000
vn 1.0000 0.0000 0.0000
vn 0.0000 1.0000 0.0000
vn -1.0000 0.0000 0.0000
# 6 vertex normals

vt 0.5000 4.5000 0.0000
vt 0.5000 -79.5000 0.0000
vt 4.5000 -79.5000 0.0000
vt 4.5000 4.5000 0.0000
vt 4.5000 87.5000 0.0000
vt 0.5000 87.5000 0.0000
vt 0.5000 3.5000 0.0000
vt 4.5000 3.5000 0.0000
vt -3.5000 87.5000 0.0000
vt -3.5000 3.5000 0.0000
vt 4.5000 7.5000 0.0000
vt -3.5000 7.5000 0.0000
# 12 texture coords

g Box45
usemtl _16643_48x78_Closet_Mirror_Gold_V1Gold_Mat
s 2
f 25/23/13 26/24/13 27/25/13 28/26/13 
s 4
f 29/27/14 30/28/14 31/29/14 32/30/14 
s 8
f 27/27/15 29/31/15 32/32/15 28/30/15 
s 16
f 26/33/16 30/34/16 29/32/16 27/30/16 
s 32
f 25/27/17 31/31/17 30/32/17 26/30/17 
s 64
f 28/33/18 32/34/18 31/32/18 25/30/18 
# 6 polygons

